<mxfile host="app.diagrams.net" agent="Mozilla/5.0 (Windows NT 10.0; Win64; x64) AppleWebKit/537.36 (KHTML, like Gecko) Chrome/129.0.0.0 Safari/537.36" version="24.7.16">
  <diagram name="Page-1" id="hOMP7fIWosge3XBsIcV3">
    <mxGraphModel dx="1694" dy="612" grid="1" gridSize="10" guides="1" tooltips="1" connect="1" arrows="1" fold="1" page="1" pageScale="1" pageWidth="850" pageHeight="1100" math="0" shadow="0">
      <root>
        <mxCell id="0" />
        <mxCell id="1" parent="0" />
        <mxCell id="ldPPf680KG1vOXH9zcTY-9" style="edgeStyle=orthogonalEdgeStyle;rounded=0;orthogonalLoop=1;jettySize=auto;html=1;exitX=0.25;exitY=1;exitDx=0;exitDy=0;entryX=0;entryY=0.5;entryDx=0;entryDy=0;" edge="1" parent="1" source="ldPPf680KG1vOXH9zcTY-1" target="ldPPf680KG1vOXH9zcTY-3">
          <mxGeometry relative="1" as="geometry" />
        </mxCell>
        <mxCell id="ldPPf680KG1vOXH9zcTY-1" value="Requirements" style="rounded=0;whiteSpace=wrap;html=1;" vertex="1" parent="1">
          <mxGeometry x="150" y="100" width="120" height="40" as="geometry" />
        </mxCell>
        <mxCell id="ldPPf680KG1vOXH9zcTY-10" style="edgeStyle=orthogonalEdgeStyle;rounded=0;orthogonalLoop=1;jettySize=auto;html=1;exitX=0.25;exitY=1;exitDx=0;exitDy=0;entryX=0;entryY=0.5;entryDx=0;entryDy=0;" edge="1" parent="1" source="ldPPf680KG1vOXH9zcTY-3" target="ldPPf680KG1vOXH9zcTY-4">
          <mxGeometry relative="1" as="geometry" />
        </mxCell>
        <mxCell id="ldPPf680KG1vOXH9zcTY-3" value="Analysis" style="rounded=0;whiteSpace=wrap;html=1;" vertex="1" parent="1">
          <mxGeometry x="210" y="160" width="120" height="40" as="geometry" />
        </mxCell>
        <mxCell id="ldPPf680KG1vOXH9zcTY-11" style="edgeStyle=orthogonalEdgeStyle;rounded=0;orthogonalLoop=1;jettySize=auto;html=1;exitX=0.25;exitY=1;exitDx=0;exitDy=0;entryX=0;entryY=0.5;entryDx=0;entryDy=0;" edge="1" parent="1" source="ldPPf680KG1vOXH9zcTY-4" target="ldPPf680KG1vOXH9zcTY-6">
          <mxGeometry relative="1" as="geometry" />
        </mxCell>
        <mxCell id="ldPPf680KG1vOXH9zcTY-4" value="Design" style="rounded=0;whiteSpace=wrap;html=1;" vertex="1" parent="1">
          <mxGeometry x="270" y="220" width="120" height="40" as="geometry" />
        </mxCell>
        <mxCell id="ldPPf680KG1vOXH9zcTY-12" style="edgeStyle=orthogonalEdgeStyle;rounded=0;orthogonalLoop=1;jettySize=auto;html=1;exitX=0.25;exitY=1;exitDx=0;exitDy=0;entryX=0;entryY=0.5;entryDx=0;entryDy=0;" edge="1" parent="1" source="ldPPf680KG1vOXH9zcTY-6" target="ldPPf680KG1vOXH9zcTY-7">
          <mxGeometry relative="1" as="geometry" />
        </mxCell>
        <mxCell id="ldPPf680KG1vOXH9zcTY-6" value="Coding/&lt;br&gt;Implementation" style="rounded=0;whiteSpace=wrap;html=1;" vertex="1" parent="1">
          <mxGeometry x="330" y="280" width="120" height="40" as="geometry" />
        </mxCell>
        <mxCell id="ldPPf680KG1vOXH9zcTY-13" style="edgeStyle=orthogonalEdgeStyle;rounded=0;orthogonalLoop=1;jettySize=auto;html=1;exitX=0.25;exitY=1;exitDx=0;exitDy=0;entryX=0;entryY=0.5;entryDx=0;entryDy=0;" edge="1" parent="1" source="ldPPf680KG1vOXH9zcTY-7" target="ldPPf680KG1vOXH9zcTY-8">
          <mxGeometry relative="1" as="geometry" />
        </mxCell>
        <mxCell id="ldPPf680KG1vOXH9zcTY-7" value="Testing" style="rounded=0;whiteSpace=wrap;html=1;" vertex="1" parent="1">
          <mxGeometry x="390" y="340" width="120" height="40" as="geometry" />
        </mxCell>
        <mxCell id="ldPPf680KG1vOXH9zcTY-8" value="Operation/&lt;br&gt;Deployment" style="rounded=0;whiteSpace=wrap;html=1;" vertex="1" parent="1">
          <mxGeometry x="450" y="400" width="120" height="40" as="geometry" />
        </mxCell>
      </root>
    </mxGraphModel>
  </diagram>
</mxfile>
